HIERARCHY
ROOT SpineBase
{
  OFFSET 0.000000 0.000000 0.000000
  CHANNELS 6 Xposition Yposition Zposition Zrotation Xrotation Yrotation
  JOINT SpineMid
  {
    OFFSET 0.000000 22.105166 0.000000
    CHANNELS 3 Zrotation Xrotation Yrotation
    JOINT SpineShoulder
    {
      OFFSET -0.851023 16.227456 -0.917052
      CHANNELS 3 Zrotation Xrotation Yrotation
      JOINT Neck
      {
        OFFSET -0.060341 5.358443 -0.332089
        CHANNELS 3 Zrotation Xrotation Yrotation
        JOINT Head
        {
          OFFSET -1.017811 13.713091 -1.374977
          CHANNELS 3 Zrotation Xrotation Yrotation
          End Site
          {
            OFFSET 0 0 0
          }
        }
      }
      JOINT ShoulderLeft
      {
        OFFSET -14.804101 0.135522 12.892302
        CHANNELS 3 Zrotation Xrotation Yrotation
        JOINT ElbowLeft
        {
          OFFSET -19.935910 -9.577239 2.664807
          CHANNELS 3 Zrotation Xrotation Yrotation
          JOINT WristLeft
          {
            OFFSET 16.421550 7.387852 -0.370934
            CHANNELS 3 Zrotation Xrotation Yrotation
            JOINT HandLeft
            {
              OFFSET 3.804148 0.814704 -3.416585
              CHANNELS 3 Zrotation Xrotation Yrotation
              JOINT HandTipLeft
              {
                OFFSET 3.885341 1.271433 -3.168283
                CHANNELS 3 Zrotation Xrotation Yrotation
                End Site
                {
                  OFFSET 0 0 0
                }
              }
              JOINT ThumbLeft
              {
                OFFSET -1.588220 4.899719 -2.532882
                CHANNELS 3 Zrotation Xrotation Yrotation
                End Site
                {
                  OFFSET 0 0 0
                }
              }
            }
          }
        }
      }
      JOINT ShoulderRight
      {
        OFFSET 5.395997 -14.716718 -28.065336
        CHANNELS 3 Zrotation Xrotation Yrotation
        JOINT ElbowRight
        {
          OFFSET -1.791626 22.779293 -1.419344
          CHANNELS 3 Zrotation Xrotation Yrotation
          JOINT WristRight
          {
            OFFSET 0.667756 -25.000695 -3.533514
            CHANNELS 3 Zrotation Xrotation Yrotation
            JOINT HandRight
            {
              OFFSET -1.181219 -6.185874 1.498037
              CHANNELS 3 Zrotation Xrotation Yrotation
              JOINT HandTipRight
              {
                OFFSET -0.365981 -4.023929 1.294476
                CHANNELS 3 Zrotation Xrotation Yrotation
                End Site
                {
                  OFFSET 0 0 0
                }
              }
              JOINT ThumbRight
              {
                OFFSET 1.612415 -0.554608 0.201156
                CHANNELS 3 Zrotation Xrotation Yrotation
                End Site
                {
                  OFFSET 0 0 0
                }
              }
            }
          }
        }
      }
    }
  }
  JOINT HipLeft
  {
    OFFSET -2.789056 0.494611 0.691277
    CHANNELS 3 Zrotation Xrotation Yrotation
    JOINT KneeLeft
    {
      OFFSET -30.600851 0.631514 -6.825974
      CHANNELS 3 Zrotation Xrotation Yrotation
      JOINT AnkleLeft
      {
        OFFSET 32.774318 -7.184529 14.130027
        CHANNELS 3 Zrotation Xrotation Yrotation
        JOINT FootLeft
        {
          OFFSET -6.056690 -7.994131 5.152345
          CHANNELS 3 Zrotation Xrotation Yrotation
          End Site
          {
            OFFSET 0 0 0
          }
        }
      }
    }
  }
  JOINT HipRight
  {
    OFFSET 1.461775 -1.619756 -4.034506
    CHANNELS 3 Zrotation Xrotation Yrotation
    JOINT KneeRight
    {
      OFFSET -15.731214 5.601787 -30.952678
      CHANNELS 3 Zrotation Xrotation Yrotation
      JOINT AnkleRight
      {
        OFFSET -2.719741 -19.982515 17.430042
        CHANNELS 3 Zrotation Xrotation Yrotation
        JOINT FootRight
        {
          OFFSET -5.326055 7.280772 -6.219555
          CHANNELS 3 Zrotation Xrotation Yrotation
          End Site
          {
            OFFSET 0 0 0
          }
        }
      }
    }
  }
}
MOTION
Frames: 14
Frame Time: 0.033333
95.871668 16.834301 409.208739 -0.000000 0.000000 48.028693 0.000000 -0.000000 -48.028693 -0.000000 0.000000 0.000000 -0.000000 0.000000 0.000000 0.000000 0.000000 0.000000 -0.000000 0.000000 0.000000 -0.000000 0.000000 0.000000 -0.000000 0.000000 0.000000 -0.000000 0.000000 0.000000 0.000000 0.000000 0.000000 0.000000 0.000000 0.000000 -0.000000 0.000000 0.000000 -0.000000 0.000000 0.000000 -0.000000 0.000000 0.000000 -0.000000 0.000000 0.000000 0.000000 0.000000 0.000000 0.000000 0.000000 0.000000 0.000000 -0.000000 -48.028693 -0.000000 0.000000 0.000000 -0.000000 0.000000 0.000000 0.000000 0.000000 0.000000 0.000000 -0.000000 -48.028693 -0.000000 0.000000 0.000000 -0.000000 0.000000 0.000000 0.000000 0.000000 0.000000
96.241835 17.322843 408.339435 0.436878 0.802938 49.213160 -0.893330 -0.193708 -49.217731 -0.000000 0.000000 0.000000 0.231208 1.297840 0.117011 0.000000 0.000000 0.000000 0.759635 -0.717106 1.729588 0.638095 1.002174 -2.364580 -2.434030 -2.772117 6.588182 3.145563 3.081305 -4.674003 0.000000 0.000000 0.000000 0.000000 0.000000 0.000000 0.662676 1.722211 0.166876 -2.096268 -0.462867 0.021563 -0.342789 5.242585 -1.852304 -9.226506 3.713169 -3.046899 0.000000 0.000000 0.000000 0.000000 0.000000 0.000000 -0.893330 -0.193708 -49.217731 -0.661586 -0.275024 -2.613417 0.648367 0.304885 2.610104 0.000000 0.000000 0.000000 -0.882147 -1.019888 -47.291655 -0.695436 -0.971747 -1.743495 3.030229 2.708882 3.102114 0.000000 0.000000 0.000000
96.540416 17.721028 407.645683 0.788737 1.365086 50.216358 -1.553720 -0.267242 -50.229378 0.934466 0.453553 0.059333 -0.457261 1.947833 0.153286 0.000000 0.000000 0.000000 0.457070 -1.718008 3.046809 1.080607 1.709261 -4.179598 -4.001385 -4.821112 11.288815 5.708520 4.932742 -7.852482 0.000000 0.000000 0.000000 0.000000 0.000000 0.000000 0.291321 2.693489 0.233358 -3.815682 -0.844406 -0.021635 -0.650840 9.930983 -3.361441 -15.334857 5.861343 -5.493977 0.000000 0.000000 0.000000 0.000000 0.000000 0.000000 -1.532818 -0.362630 -51.421805 -1.163561 -0.518849 -3.571074 1.038925 0.627825 4.753490 0.000000 0.000000 0.000000 -1.528702 -1.755705 -46.699235 -1.733284 -1.823671 -3.534638 6.090582 5.424187 6.162348 0.000000 0.000000 0.000000
96.767409 18.028857 407.127482 1.055578 1.685905 51.068658 -1.974736 -0.237985 -51.088291 1.331790 0.578658 0.082347 -0.597961 2.702018 0.207956 0.000000 0.000000 0.000000 0.578843 -2.252346 4.092666 1.281926 2.186666 -5.480139 -4.922850 -6.186448 14.428345 7.414935 5.879817 -9.761738 0.000000 0.000000 0.000000 0.000000 0.000000 0.000000 0.351654 3.681300 0.298827 -5.145552 -1.138159 -0.095110 -0.938567 13.653515 -4.498166 -18.842439 6.759336 -7.311765 0.000000 0.000000 0.000000 0.000000 0.000000 0.000000 -1.887386 -0.491089 -52.601870 -1.506248 -0.761113 -4.933985 1.174928 0.949825 6.431172 0.000000 0.000000 0.000000 -1.932143 -2.211180 -46.307092 -3.089998 -2.523181 -5.361176 9.187714 8.153284 9.271118 0.000000 0.000000 0.000000
96.922814 18.246328 406.784833 1.237149 1.764179 51.792842 -2.958859 0.432549 -51.880039 2.600946 0.924623 0.158526 -0.670690 3.284156 0.247995 0.000000 0.000000 0.000000 0.658261 -2.595524 4.872470 1.213011 2.480247 -6.294057 -5.328028 -6.931345 16.245882 8.129713 6.149147 -10.617736 0.000000 0.000000 0.000000 0.000000 0.000000 0.000000 0.364523 4.423519 0.337274 -6.078329 -1.341847 -0.171250 -1.239722 16.142209 -5.256529 -20.624718 7.089055 -8.482654 0.000000 0.000000 0.000000 0.000000 0.000000 0.000000 -1.964378 -0.603734 -53.478244 -1.687392 -1.002836 -6.002777 2.029224 2.294458 7.645213 0.000000 0.000000 0.000000 -2.087136 -2.390445 -46.156068 -4.736628 -3.043730 -7.212405 12.313609 10.921454 12.517058 0.000000 0.000000 0.000000
97.006633 18.373442 406.617736 1.332928 1.597767 52.405548 -2.805432 1.098781 -52.483455 3.187851 0.557147 0.187022 -0.671119 3.680308 0.273889 0.000000 0.000000 0.000000 0.712113 -2.760157 5.411912 0.855734 2.618087 -6.643018 -5.281799 -7.107115 16.890155 7.816681 5.866128 -10.595241 0.000000 0.000000 0.000000 0.000000 0.000000 0.000000 0.336104 4.918058 0.353072 -6.610086 -1.455844 -0.230483 -1.585271 17.247341 -5.641563 -21.309547 7.383273 -8.988741 0.000000 0.000000 0.000000 0.000000 0.000000 0.000000 -1.759553 -0.711105 -54.071566 -1.706796 -1.249660 -6.774438 2.252162 4.124472 7.789514 0.000000 0.000000 0.000000 -1.988360 -2.298511 -46.273910 -6.638334 -3.365671 -9.076322 15.438779 13.768598 15.985895 0.000000 0.000000 0.000000
96.570960 18.347921 406.160150 0.470356 1.365065 53.699240 -1.760063 2.179555 -53.771024 4.231650 -0.489799 0.246833 -0.034513 4.374406 0.369944 0.000000 0.000000 0.000000 1.350775 -2.979792 5.846334 -1.072028 2.879951 -6.998413 -3.593150 -6.823806 17.390997 2.672737 3.628428 -11.368899 0.000000 0.000000 0.000000 0.000000 0.000000 0.000000 0.739930 5.634530 0.415178 -7.096703 -1.715932 -0.376928 -3.388876 16.692838 -5.967636 -20.855247 7.311290 -8.804139 0.000000 0.000000 0.000000 0.000000 0.000000 0.000000 -0.924619 -1.498155 -54.180314 -1.159323 -1.723011 -8.336882 2.515594 9.298221 5.659496 0.000000 0.000000 0.000000 -1.221554 -2.352602 -47.982077 -10.858774 -3.325591 -12.513705 20.977757 20.160085 24.177258 0.000000 0.000000 0.000000
96.860105 18.462301 406.872891 0.653031 -0.723396 51.795791 -1.621493 4.021715 -51.888171 4.744529 -1.688654 0.273504 2.956549 9.266332 0.587434 0.000000 0.000000 0.000000 1.926245 -1.120805 5.983918 -1.826799 2.715916 -6.373580 -2.813765 -6.063057 15.625980 -0.193197 2.033156 -10.248732 0.000000 0.000000 0.000000 0.000000 0.000000 0.000000 2.578795 8.436919 0.435967 -8.168125 -2.283357 -0.661294 -2.099973 12.546682 -5.187372 -21.529185 10.119755 -8.171657 0.000000 0.000000 0.000000 0.000000 0.000000 0.000000 1.309986 -1.495534 -52.468178 -1.055997 -2.185885 -7.990892 1.848842 10.831566 5.498903 0.000000 0.000000 0.000000 0.095934 -1.616313 -46.188545 -11.378023 -1.837074 -12.635670 19.649888 18.443706 23.268127 0.000000 0.000000 0.000000
98.127215 18.411653 406.962454 2.554017 -0.212623 50.320027 -1.977032 3.929863 -50.318720 5.394409 -1.228899 0.354593 0.020798 6.212943 0.374291 0.000000 0.000000 0.000000 -0.741815 -1.739970 5.493420 -2.530787 2.104847 -4.808317 -1.392981 -3.756652 11.243971 -3.116099 -0.507466 -7.136928 0.000000 0.000000 0.000000 0.000000 0.000000 0.000000 -0.434582 5.935570 0.243843 -7.326399 -1.614356 -0.355730 -3.101454 10.533168 -4.716670 -20.428104 13.275851 -6.839338 0.000000 0.000000 0.000000 0.000000 0.000000 0.000000 -0.209247 -0.230704 -48.992296 -0.255996 -2.664954 -9.801017 1.566875 13.192372 4.068304 0.000000 0.000000 0.000000 -1.095962 -0.165103 -43.346310 -16.803749 -1.507253 -18.394993 26.186744 26.700880 32.902969 0.000000 0.000000 0.000000
98.203658 18.077339 406.601158 3.168871 0.928914 47.370876 -1.741232 4.018760 -47.339242 5.860588 -1.140978 0.417692 -3.065911 1.279045 -0.002399 0.000000 0.000000 0.000000 -1.956196 -3.165971 4.878804 -3.013649 1.348060 -3.137592 -0.034366 -1.278417 6.707562 -4.365358 -2.957852 -2.614301 0.000000 0.000000 0.000000 0.000000 0.000000 0.000000 -2.971616 3.249308 0.066720 -5.285739 -1.284744 -0.153123 -5.559806 16.059143 -5.480205 -19.627305 9.704394 -7.579218 0.000000 0.000000 0.000000 0.000000 0.000000 0.000000 -1.514619 -0.488032 -46.403374 0.121974 -2.837811 -9.517605 2.492921 14.113955 4.287848 0.000000 0.000000 0.000000 -2.019821 0.348883 -40.133160 -15.177614 -1.863079 -17.939422 23.910037 23.681006 30.284195 0.000000 0.000000 0.000000
96.839515 17.736044 406.666425 1.484537 1.091994 51.238945 -0.161328 4.017301 -51.225516 4.714552 -2.272433 0.315665 -2.131165 -0.100277 -0.053816 0.000000 0.000000 0.000000 0.087004 -3.080592 4.895036 -3.645624 1.202990 -2.787887 0.354874 -1.336335 6.652753 -4.850709 -3.405135 -2.286417 0.000000 0.000000 0.000000 0.000000 0.000000 0.000000 -1.900978 2.393115 0.109221 -3.253546 -1.362550 -0.108239 -6.515672 18.663239 -5.381464 -18.110425 8.672369 -7.197285 0.000000 0.000000 0.000000 0.000000 0.000000 0.000000 -0.801006 -1.623111 -52.378760 -0.181023 -2.154423 -6.205752 2.227972 12.970405 2.668608 0.000000 0.000000 0.000000 -0.948751 0.358330 -46.194744 -10.762390 -3.404225 -13.131313 20.347641 18.448147 24.577125 0.000000 0.000000 0.000000
94.711050 17.292733 406.750314 -1.289019 1.026294 44.896785 0.238656 4.005910 -44.895139 2.934296 -3.307074 0.030628 1.016805 -0.723188 0.061261 0.000000 0.000000 0.000000 4.320359 -2.537214 5.136509 -4.032823 0.970729 -2.313123 0.823952 -0.513631 4.955387 -0.664381 -1.176181 -0.303388 0.000000 0.000000 0.000000 0.000000 0.000000 0.000000 1.861844 1.560063 0.287587 -1.721083 -1.792755 -0.145060 -5.734183 11.474335 -3.438489 -11.847176 11.666207 -3.761812 0.000000 0.000000 0.000000 0.000000 0.000000 0.000000 0.476599 -2.163586 -46.492639 0.252831 -1.790032 -5.351560 4.799695 12.253734 3.115487 0.000000 0.000000 0.000000 0.785750 -0.628869 -43.170771 -8.794741 -3.942078 -9.243185 18.954551 16.795595 23.347809 0.000000 0.000000 0.000000
93.714577 17.175537 407.037550 -2.038858 0.353546 44.557198 0.793865 5.046489 -44.568168 1.857653 -4.299215 -0.192026 3.159054 -0.195367 0.198936 0.000000 0.000000 0.000000 5.874891 -1.917547 4.813261 -3.201148 0.881636 -2.099143 0.509549 -0.440865 4.227036 -1.648965 -0.943315 -2.777311 0.000000 0.000000 0.000000 0.000000 0.000000 0.000000 3.704808 1.966160 0.395009 -2.566957 -1.496862 0.022074 -6.282681 18.566839 -4.835966 -12.941726 8.072790 -4.687300 0.000000 0.000000 0.000000 0.000000 0.000000 0.000000 1.631288 -2.530015 -48.146186 -0.512988 -1.076479 -1.694764 4.070902 7.499913 3.794133 0.000000 0.000000 0.000000 1.625312 -0.540110 -44.158116 -8.047692 -3.466173 -7.607263 17.245157 15.145686 21.900971 0.000000 0.000000 0.000000
93.619201 17.201684 406.415967 -1.488739 1.933722 45.442776 -0.823122 4.795530 -45.477459 2.225692 -2.742442 -0.103941 2.694855 -2.584798 0.109216 0.000000 0.000000 0.000000 5.514823 -3.518002 4.387345 -1.899888 0.551395 -1.417296 -0.408696 -0.007159 2.248391 0.814457 0.670819 -1.855858 0.000000 0.000000 0.000000 0.000000 0.000000 0.000000 3.655559 0.255876 0.440602 -2.342584 -0.836330 0.052591 -10.402875 27.017545 -6.262394 -9.456547 1.435640 -3.865787 0.000000 0.000000 0.000000 0.000000 0.000000 0.000000 0.139385 -3.290464 -47.579534 -1.225507 -0.491162 -1.675813 1.991371 2.420915 3.820790 0.000000 0.000000 0.000000 0.225431 -1.134788 -44.582882 -8.142570 -3.171475 -8.214704 17.494140 15.414235 22.755093 0.000000 0.000000 0.000000
